<svg xmlns="http://www.w3.org/2000/svg" xmlns:xlink="http://www.w3.org/1999/xlink" width="512" zoomAndPan="magnify" viewBox="0 0 384 383.999986" height="512" preserveAspectRatio="xMidYMid meet" version="1.0"><defs><clipPath id="8932c6b63f"><path d="M 33.601562 0 L 350.101562 0 L 350.101562 54 L 33.601562 54 Z M 33.601562 0 " clip-rule="nonzero"/></clipPath><clipPath id="e3ce8d21ef"><path d="M 33.601562 353 L 350.101562 353 L 350.101562 384 L 33.601562 384 Z M 33.601562 353 " clip-rule="nonzero"/></clipPath></defs><rect x="-38.4" width="460.8" fill="#ffffff" y="-38.399999" height="460.799983" fill-opacity="1"/><rect x="-38.4" width="460.8" fill="#ffffff" y="-38.399999" height="460.799983" fill-opacity="1"/><path fill="#000000" d="M 323.820312 361.636719 L 59.878906 361.636719 C 59.601562 361.636719 59.324219 361.609375 59.046875 361.554688 C 58.773438 361.5 58.507812 361.417969 58.25 361.3125 C 57.988281 361.203125 57.742188 361.070312 57.511719 360.917969 C 57.277344 360.761719 57.0625 360.582031 56.863281 360.386719 C 56.667969 360.1875 56.488281 359.972656 56.335938 359.738281 C 56.179688 359.503906 56.046875 359.257812 55.941406 359 C 55.832031 358.742188 55.753906 358.476562 55.699219 358.199219 C 55.644531 357.925781 55.617188 357.648438 55.617188 357.367188 L 55.617188 49.152344 C 55.617188 48.871094 55.644531 48.59375 55.699219 48.320312 C 55.753906 48.042969 55.832031 47.777344 55.941406 47.519531 C 56.046875 47.257812 56.179688 47.011719 56.335938 46.78125 C 56.488281 46.546875 56.667969 46.332031 56.863281 46.132812 C 57.0625 45.933594 57.277344 45.757812 57.511719 45.601562 C 57.742188 45.445312 57.988281 45.316406 58.25 45.207031 C 58.507812 45.101562 58.773438 45.019531 59.046875 44.964844 C 59.324219 44.910156 59.601562 44.882812 59.878906 44.882812 L 323.820312 44.882812 C 324.101562 44.882812 324.378906 44.910156 324.652344 44.964844 C 324.925781 45.019531 325.195312 45.101562 325.453125 45.207031 C 325.710938 45.316406 325.957031 45.445312 326.191406 45.601562 C 326.421875 45.757812 326.636719 45.933594 326.835938 46.132812 C 327.035156 46.332031 327.210938 46.546875 327.367188 46.78125 C 327.523438 47.011719 327.652344 47.257812 327.761719 47.519531 C 327.867188 47.777344 327.949219 48.042969 328.003906 48.320312 C 328.058594 48.59375 328.085938 48.871094 328.085938 49.152344 L 328.085938 357.367188 C 328.085938 357.648438 328.058594 357.925781 328.003906 358.199219 C 327.949219 358.476562 327.867188 358.742188 327.761719 359 C 327.652344 359.257812 327.523438 359.503906 327.367188 359.738281 C 327.210938 359.972656 327.035156 360.1875 326.835938 360.386719 C 326.636719 360.582031 326.421875 360.761719 326.191406 360.917969 C 325.957031 361.070312 325.710938 361.203125 325.453125 361.3125 C 325.195312 361.417969 324.925781 361.5 324.652344 361.554688 C 324.378906 361.609375 324.101562 361.636719 323.820312 361.636719 Z M 64.144531 353.097656 L 319.554688 353.097656 L 319.554688 53.417969 L 64.144531 53.417969 Z M 64.144531 353.097656 " fill-opacity="1" fill-rule="nonzero"/><g clip-path="url(#8932c6b63f)"><path fill="#000000" d="M 345.816406 53.417969 L 37.882812 53.417969 C 37.605469 53.417969 37.328125 53.390625 37.050781 53.335938 C 36.777344 53.28125 36.511719 53.203125 36.253906 53.09375 C 35.992188 52.988281 35.746094 52.855469 35.515625 52.699219 C 35.28125 52.542969 35.066406 52.367188 34.867188 52.167969 C 34.671875 51.972656 34.496094 51.757812 34.339844 51.523438 C 34.183594 51.289062 34.050781 51.042969 33.945312 50.785156 C 33.835938 50.527344 33.757812 50.257812 33.703125 49.984375 C 33.648438 49.710938 33.621094 49.433594 33.621094 49.152344 L 33.621094 5.121094 C 33.621094 4.839844 33.648438 4.5625 33.703125 4.289062 C 33.757812 4.011719 33.835938 3.746094 33.945312 3.488281 C 34.050781 3.230469 34.183594 2.984375 34.339844 2.75 C 34.496094 2.515625 34.671875 2.300781 34.867188 2.101562 C 35.066406 1.90625 35.28125 1.726562 35.515625 1.570312 C 35.746094 1.417969 35.992188 1.285156 36.253906 1.175781 C 36.511719 1.070312 36.777344 0.988281 37.050781 0.933594 C 37.328125 0.878906 37.605469 0.851562 37.882812 0.851562 L 345.816406 0.851562 C 346.09375 0.851562 346.371094 0.878906 346.648438 0.933594 C 346.921875 0.988281 347.1875 1.070312 347.445312 1.175781 C 347.707031 1.285156 347.953125 1.417969 348.183594 1.570312 C 348.417969 1.726562 348.632812 1.90625 348.832031 2.101562 C 349.027344 2.300781 349.207031 2.515625 349.359375 2.75 C 349.515625 2.984375 349.648438 3.230469 349.753906 3.488281 C 349.863281 3.746094 349.941406 4.011719 349.996094 4.289062 C 350.050781 4.5625 350.078125 4.839844 350.078125 5.121094 L 350.078125 49.152344 C 350.078125 49.433594 350.050781 49.710938 349.996094 49.984375 C 349.941406 50.257812 349.863281 50.527344 349.753906 50.785156 C 349.648438 51.042969 349.515625 51.289062 349.359375 51.523438 C 349.207031 51.757812 349.027344 51.972656 348.832031 52.167969 C 348.632812 52.367188 348.417969 52.542969 348.183594 52.699219 C 347.953125 52.855469 347.707031 52.988281 347.445312 53.09375 C 347.1875 53.203125 346.921875 53.28125 346.648438 53.335938 C 346.371094 53.390625 346.09375 53.417969 345.816406 53.417969 Z M 42.148438 44.882812 L 341.550781 44.882812 L 341.550781 9.390625 L 42.148438 9.390625 Z M 42.148438 44.882812 " fill-opacity="1" fill-rule="nonzero"/></g><g clip-path="url(#e3ce8d21ef)"><path fill="#000000" d="M 345.816406 383.652344 L 37.882812 383.652344 C 37.605469 383.652344 37.328125 383.625 37.050781 383.570312 C 36.777344 383.515625 36.511719 383.433594 36.253906 383.324219 C 35.992188 383.21875 35.746094 383.085938 35.515625 382.929688 C 35.28125 382.777344 35.066406 382.597656 34.867188 382.402344 C 34.671875 382.203125 34.496094 381.988281 34.339844 381.753906 C 34.183594 381.519531 34.050781 381.273438 33.945312 381.015625 C 33.835938 380.757812 33.757812 380.488281 33.703125 380.214844 C 33.648438 379.941406 33.621094 379.664062 33.621094 379.382812 L 33.621094 357.367188 C 33.621094 357.085938 33.648438 356.808594 33.703125 356.535156 C 33.757812 356.261719 33.835938 355.992188 33.945312 355.734375 C 34.050781 355.476562 34.183594 355.230469 34.339844 354.996094 C 34.496094 354.761719 34.671875 354.546875 34.867188 354.347656 C 35.066406 354.152344 35.28125 353.972656 35.515625 353.820312 C 35.746094 353.664062 35.992188 353.53125 36.253906 353.425781 C 36.511719 353.316406 36.777344 353.234375 37.050781 353.179688 C 37.328125 353.125 37.605469 353.097656 37.882812 353.097656 L 345.816406 353.097656 C 346.09375 353.097656 346.371094 353.125 346.648438 353.179688 C 346.921875 353.234375 347.1875 353.316406 347.445312 353.425781 C 347.707031 353.53125 347.953125 353.664062 348.183594 353.820312 C 348.417969 353.972656 348.632812 354.152344 348.832031 354.347656 C 349.027344 354.546875 349.207031 354.761719 349.359375 354.996094 C 349.515625 355.230469 349.648438 355.476562 349.753906 355.734375 C 349.863281 355.992188 349.941406 356.261719 349.996094 356.535156 C 350.050781 356.808594 350.078125 357.085938 350.078125 357.367188 L 350.078125 379.382812 C 350.078125 379.664062 350.050781 379.941406 349.996094 380.214844 C 349.941406 380.488281 349.863281 380.757812 349.753906 381.015625 C 349.648438 381.273438 349.515625 381.519531 349.359375 381.753906 C 349.207031 381.988281 349.027344 382.203125 348.832031 382.402344 C 348.632812 382.597656 348.417969 382.777344 348.183594 382.929688 C 347.953125 383.085938 347.707031 383.21875 347.445312 383.324219 C 347.1875 383.433594 346.921875 383.515625 346.648438 383.570312 C 346.371094 383.625 346.09375 383.652344 345.816406 383.652344 Z M 42.148438 375.113281 L 341.550781 375.113281 L 341.550781 361.636719 L 42.148438 361.636719 Z M 42.148438 375.113281 " fill-opacity="1" fill-rule="nonzero"/></g><path fill="#000000" d="M 301.824219 251.558594 L 191.851562 251.558594 C 191.570312 251.558594 191.292969 251.53125 191.019531 251.476562 C 190.742188 251.421875 190.476562 251.339844 190.21875 251.234375 C 189.960938 251.125 189.714844 250.996094 189.480469 250.839844 C 189.246094 250.683594 189.03125 250.507812 188.835938 250.308594 C 188.636719 250.109375 188.460938 249.894531 188.304688 249.660156 C 188.148438 249.429688 188.015625 249.183594 187.910156 248.921875 C 187.804688 248.664062 187.722656 248.398438 187.667969 248.121094 C 187.613281 247.847656 187.585938 247.570312 187.585938 247.289062 L 187.585938 115.199219 C 187.585938 114.917969 187.613281 114.640625 187.667969 114.367188 C 187.722656 114.089844 187.804688 113.824219 187.910156 113.566406 C 188.015625 113.304688 188.148438 113.058594 188.304688 112.828125 C 188.460938 112.59375 188.636719 112.378906 188.835938 112.179688 C 189.03125 111.980469 189.246094 111.804688 189.480469 111.648438 C 189.714844 111.492188 189.960938 111.363281 190.21875 111.253906 C 190.476562 111.148438 190.742188 111.066406 191.019531 111.011719 C 191.292969 110.957031 191.570312 110.929688 191.851562 110.929688 L 301.824219 110.929688 C 302.105469 110.929688 302.382812 110.957031 302.65625 111.011719 C 302.933594 111.066406 303.199219 111.148438 303.457031 111.253906 C 303.714844 111.363281 303.960938 111.492188 304.195312 111.648438 C 304.425781 111.804688 304.644531 111.980469 304.839844 112.179688 C 305.039062 112.378906 305.214844 112.59375 305.371094 112.828125 C 305.527344 113.058594 305.65625 113.304688 305.765625 113.566406 C 305.871094 113.824219 305.953125 114.089844 306.007812 114.367188 C 306.0625 114.640625 306.089844 114.917969 306.089844 115.199219 L 306.089844 247.289062 C 306.089844 247.570312 306.0625 247.847656 306.007812 248.121094 C 305.953125 248.398438 305.871094 248.664062 305.765625 248.921875 C 305.65625 249.183594 305.527344 249.429688 305.371094 249.660156 C 305.214844 249.894531 305.039062 250.109375 304.839844 250.308594 C 304.644531 250.507812 304.425781 250.683594 304.195312 250.839844 C 303.960938 250.996094 303.714844 251.125 303.457031 251.234375 C 303.199219 251.339844 302.933594 251.421875 302.65625 251.476562 C 302.382812 251.53125 302.105469 251.558594 301.824219 251.558594 Z M 196.113281 243.023438 L 297.5625 243.023438 L 297.5625 119.464844 L 196.113281 119.464844 Z M 196.113281 243.023438 " fill-opacity="1" fill-rule="nonzero"/><path fill="#000000" d="M 169.855469 361.636719 L 59.878906 361.636719 C 59.601562 361.636719 59.324219 361.609375 59.046875 361.554688 C 58.773438 361.5 58.507812 361.417969 58.25 361.3125 C 57.988281 361.203125 57.742188 361.070312 57.511719 360.917969 C 57.277344 360.761719 57.0625 360.582031 56.863281 360.386719 C 56.667969 360.1875 56.488281 359.972656 56.335938 359.738281 C 56.179688 359.503906 56.046875 359.257812 55.941406 359 C 55.832031 358.742188 55.753906 358.476562 55.699219 358.199219 C 55.644531 357.925781 55.617188 357.648438 55.617188 357.367188 L 55.617188 71.167969 C 55.617188 70.886719 55.644531 70.609375 55.699219 70.335938 C 55.753906 70.058594 55.832031 69.792969 55.941406 69.535156 C 56.046875 69.273438 56.179688 69.027344 56.335938 68.796875 C 56.488281 68.5625 56.667969 68.347656 56.863281 68.148438 C 57.0625 67.949219 57.277344 67.773438 57.511719 67.617188 C 57.742188 67.460938 57.988281 67.332031 58.25 67.222656 C 58.507812 67.117188 58.773438 67.035156 59.046875 66.980469 C 59.324219 66.925781 59.601562 66.898438 59.878906 66.898438 L 169.855469 66.898438 C 170.136719 66.898438 170.414062 66.925781 170.6875 66.980469 C 170.960938 67.035156 171.226562 67.117188 171.488281 67.222656 C 171.746094 67.332031 171.992188 67.460938 172.222656 67.617188 C 172.457031 67.773438 172.671875 67.949219 172.871094 68.148438 C 173.066406 68.347656 173.246094 68.5625 173.402344 68.796875 C 173.554688 69.027344 173.6875 69.273438 173.792969 69.535156 C 173.902344 69.792969 173.984375 70.058594 174.039062 70.335938 C 174.09375 70.609375 174.121094 70.886719 174.121094 71.167969 L 174.121094 357.367188 C 174.121094 357.648438 174.09375 357.925781 174.039062 358.199219 C 173.984375 358.476562 173.902344 358.742188 173.792969 359 C 173.6875 359.257812 173.554688 359.503906 173.402344 359.738281 C 173.246094 359.972656 173.066406 360.1875 172.871094 360.386719 C 172.671875 360.582031 172.457031 360.761719 172.222656 360.917969 C 171.992188 361.070312 171.746094 361.203125 171.488281 361.3125 C 171.226562 361.417969 170.960938 361.5 170.6875 361.554688 C 170.414062 361.609375 170.136719 361.636719 169.855469 361.636719 Z M 64.144531 353.097656 L 165.589844 353.097656 L 165.589844 75.433594 L 64.144531 75.433594 Z M 64.144531 353.097656 " fill-opacity="1" fill-rule="nonzero"/><path fill="#000000" d="M 246.835938 190.910156 C 246.121094 190.910156 245.410156 190.875 244.695312 190.804688 C 243.984375 190.734375 243.277344 190.628906 242.574219 190.488281 C 241.875 190.347656 241.179688 190.175781 240.496094 189.96875 C 239.8125 189.757812 239.140625 189.519531 238.476562 189.242188 C 237.816406 188.96875 237.171875 188.664062 236.539062 188.328125 C 235.910156 187.988281 235.296875 187.621094 234.699219 187.222656 C 234.105469 186.824219 233.53125 186.398438 232.980469 185.945312 C 232.425781 185.492188 231.898438 185.011719 231.390625 184.503906 C 230.882812 183.996094 230.40625 183.46875 229.949219 182.914062 C 229.496094 182.359375 229.070312 181.785156 228.675781 181.191406 C 228.277344 180.59375 227.910156 179.980469 227.570312 179.351562 C 227.234375 178.71875 226.929688 178.070312 226.65625 177.410156 C 226.382812 176.75 226.140625 176.074219 225.933594 175.390625 C 225.726562 174.703125 225.550781 174.011719 225.410156 173.308594 C 225.273438 172.605469 225.167969 171.898438 225.097656 171.1875 C 225.027344 170.472656 224.992188 169.757812 224.992188 169.042969 C 224.992188 168.328125 225.027344 167.613281 225.097656 166.898438 C 225.167969 166.1875 225.273438 165.480469 225.410156 164.777344 C 225.550781 164.074219 225.726562 163.378906 225.933594 162.695312 C 226.140625 162.011719 226.382812 161.335938 226.65625 160.675781 C 226.929688 160.011719 227.234375 159.367188 227.570312 158.734375 C 227.910156 158.105469 228.277344 157.488281 228.675781 156.894531 C 229.070312 156.300781 229.496094 155.726562 229.949219 155.171875 C 230.40625 154.617188 230.886719 154.085938 231.390625 153.582031 C 231.898438 153.074219 232.425781 152.59375 232.980469 152.140625 C 233.53125 151.6875 234.105469 151.257812 234.699219 150.863281 C 235.296875 150.464844 235.910156 150.097656 236.539062 149.757812 C 237.171875 149.421875 237.816406 149.117188 238.476562 148.839844 C 239.140625 148.566406 239.8125 148.328125 240.496094 148.117188 C 241.179688 147.910156 241.875 147.738281 242.574219 147.597656 C 243.277344 147.457031 243.984375 147.351562 244.695312 147.28125 C 245.410156 147.210938 246.121094 147.175781 246.839844 147.175781 C 247.554688 147.175781 248.265625 147.210938 248.980469 147.28125 C 249.691406 147.351562 250.398438 147.457031 251.101562 147.597656 C 251.800781 147.738281 252.496094 147.910156 253.179688 148.117188 C 253.863281 148.328125 254.535156 148.566406 255.199219 148.839844 C 255.859375 149.117188 256.503906 149.421875 257.136719 149.757812 C 257.765625 150.097656 258.378906 150.464844 258.976562 150.863281 C 259.570312 151.257812 260.144531 151.6875 260.695312 152.140625 C 261.25 152.59375 261.777344 153.074219 262.285156 153.582031 C 262.789062 154.085938 263.269531 154.617188 263.726562 155.171875 C 264.179688 155.726562 264.605469 156.300781 265 156.894531 C 265.398438 157.488281 265.765625 158.101562 266.105469 158.734375 C 266.441406 159.367188 266.746094 160.011719 267.019531 160.675781 C 267.292969 161.335938 267.535156 162.011719 267.742188 162.695312 C 267.949219 163.378906 268.125 164.074219 268.261719 164.777344 C 268.402344 165.480469 268.507812 166.1875 268.578125 166.898438 C 268.648438 167.613281 268.683594 168.328125 268.683594 169.042969 C 268.683594 169.757812 268.648438 170.472656 268.574219 171.183594 C 268.503906 171.898438 268.398438 172.605469 268.257812 173.304688 C 268.121094 174.007812 267.945312 174.703125 267.738281 175.386719 C 267.527344 176.070312 267.289062 176.746094 267.015625 177.40625 C 266.738281 178.066406 266.433594 178.714844 266.097656 179.34375 C 265.757812 179.976562 265.390625 180.589844 264.996094 181.183594 C 264.597656 181.78125 264.171875 182.355469 263.71875 182.90625 C 263.261719 183.460938 262.785156 183.992188 262.277344 184.496094 C 261.773438 185.003906 261.242188 185.484375 260.691406 185.9375 C 260.136719 186.390625 259.5625 186.816406 258.96875 187.214844 C 258.375 187.613281 257.761719 187.980469 257.128906 188.320312 C 256.5 188.65625 255.855469 188.964844 255.195312 189.238281 C 254.53125 189.511719 253.859375 189.753906 253.175781 189.960938 C 252.492188 190.167969 251.800781 190.34375 251.097656 190.484375 C 250.394531 190.625 249.691406 190.730469 248.976562 190.800781 C 248.265625 190.871094 247.554688 190.90625 246.835938 190.910156 Z M 246.835938 155.714844 C 245.964844 155.714844 245.097656 155.796875 244.238281 155.96875 C 243.382812 156.140625 242.550781 156.394531 241.742188 156.726562 C 240.933594 157.0625 240.167969 157.472656 239.4375 157.960938 C 238.710938 158.445312 238.039062 159 237.421875 159.617188 C 236.804688 160.234375 236.25 160.910156 235.765625 161.636719 C 235.277344 162.363281 234.867188 163.132812 234.535156 163.941406 C 234.199219 164.75 233.945312 165.582031 233.777344 166.441406 C 233.605469 167.300781 233.519531 168.167969 233.519531 169.042969 C 233.519531 169.917969 233.605469 170.785156 233.777344 171.644531 C 233.945312 172.5 234.199219 173.335938 234.535156 174.144531 C 234.871094 174.953125 235.28125 175.71875 235.765625 176.449219 C 236.25 177.175781 236.804688 177.847656 237.421875 178.46875 C 238.039062 179.085938 238.710938 179.640625 239.441406 180.125 C 240.167969 180.613281 240.933594 181.023438 241.742188 181.359375 C 242.550781 181.691406 243.382812 181.945312 244.238281 182.117188 C 245.097656 182.285156 245.964844 182.371094 246.839844 182.371094 C 247.710938 182.371094 248.578125 182.285156 249.4375 182.117188 C 250.292969 181.945312 251.125 181.691406 251.933594 181.355469 C 252.742188 181.023438 253.507812 180.613281 254.238281 180.125 C 254.964844 179.640625 255.636719 179.085938 256.253906 178.46875 C 256.871094 177.847656 257.425781 177.175781 257.910156 176.449219 C 258.398438 175.71875 258.808594 174.953125 259.140625 174.144531 C 259.476562 173.335938 259.730469 172.5 259.898438 171.644531 C 260.070312 170.785156 260.15625 169.917969 260.15625 169.042969 C 260.152344 168.167969 260.066406 167.300781 259.898438 166.441406 C 259.726562 165.585938 259.472656 164.75 259.136719 163.945312 C 258.800781 163.136719 258.390625 162.367188 257.90625 161.640625 C 257.421875 160.914062 256.867188 160.238281 256.25 159.621094 C 255.632812 159.003906 254.960938 158.449219 254.234375 157.964844 C 253.507812 157.476562 252.738281 157.066406 251.929688 156.730469 C 251.125 156.398438 250.292969 156.144531 249.433594 155.972656 C 248.578125 155.800781 247.710938 155.714844 246.835938 155.714844 Z M 246.835938 155.714844 " fill-opacity="1" fill-rule="nonzero"/><path fill="#000000" d="M 147.859375 207.527344 C 147.582031 207.527344 147.304688 207.5 147.027344 207.445312 C 146.753906 207.390625 146.488281 207.308594 146.226562 207.203125 C 145.96875 207.09375 145.722656 206.964844 145.492188 206.808594 C 145.257812 206.652344 145.042969 206.476562 144.84375 206.277344 C 144.648438 206.078125 144.46875 205.863281 144.316406 205.628906 C 144.160156 205.398438 144.027344 205.152344 143.921875 204.894531 C 143.8125 204.632812 143.734375 204.367188 143.679688 204.09375 C 143.625 203.816406 143.597656 203.539062 143.597656 203.257812 L 143.597656 181.242188 C 143.597656 180.964844 143.625 180.6875 143.679688 180.410156 C 143.734375 180.136719 143.8125 179.871094 143.921875 179.609375 C 144.027344 179.351562 144.160156 179.105469 144.316406 178.871094 C 144.46875 178.640625 144.648438 178.425781 144.84375 178.226562 C 145.042969 178.027344 145.257812 177.851562 145.492188 177.695312 C 145.722656 177.539062 145.96875 177.40625 146.226562 177.300781 C 146.488281 177.195312 146.753906 177.113281 147.027344 177.058594 C 147.304688 177.003906 147.582031 176.976562 147.859375 176.976562 C 148.140625 176.976562 148.417969 177.003906 148.691406 177.058594 C 148.964844 177.113281 149.234375 177.195312 149.492188 177.300781 C 149.75 177.40625 149.996094 177.539062 150.230469 177.695312 C 150.460938 177.851562 150.675781 178.027344 150.875 178.226562 C 151.074219 178.425781 151.25 178.640625 151.40625 178.871094 C 151.5625 179.105469 151.691406 179.351562 151.800781 179.609375 C 151.90625 179.871094 151.988281 180.136719 152.042969 180.410156 C 152.097656 180.6875 152.125 180.964844 152.125 181.242188 L 152.125 203.257812 C 152.125 203.539062 152.097656 203.816406 152.042969 204.09375 C 151.988281 204.367188 151.90625 204.632812 151.800781 204.894531 C 151.691406 205.152344 151.5625 205.398438 151.40625 205.628906 C 151.25 205.863281 151.074219 206.078125 150.875 206.277344 C 150.675781 206.476562 150.460938 206.652344 150.230469 206.808594 C 149.996094 206.964844 149.75 207.09375 149.492188 207.203125 C 149.234375 207.308594 148.964844 207.390625 148.691406 207.445312 C 148.417969 207.5 148.140625 207.527344 147.859375 207.527344 Z M 147.859375 207.527344 " fill-opacity="1" fill-rule="nonzero"/><path fill="#000000" d="M 213.84375 75.433594 L 191.851562 75.433594 C 191.570312 75.433594 191.292969 75.40625 191.019531 75.351562 C 190.742188 75.296875 190.476562 75.21875 190.21875 75.109375 C 189.960938 75.003906 189.714844 74.871094 189.480469 74.714844 C 189.246094 74.558594 189.03125 74.382812 188.835938 74.183594 C 188.636719 73.988281 188.460938 73.769531 188.304688 73.539062 C 188.148438 73.304688 188.015625 73.058594 187.910156 72.800781 C 187.804688 72.542969 187.722656 72.273438 187.667969 72 C 187.613281 71.726562 187.585938 71.449219 187.585938 71.167969 C 187.585938 70.886719 187.613281 70.609375 187.667969 70.335938 C 187.722656 70.058594 187.804688 69.792969 187.910156 69.535156 C 188.015625 69.273438 188.148438 69.027344 188.304688 68.796875 C 188.460938 68.5625 188.636719 68.347656 188.835938 68.148438 C 189.03125 67.949219 189.246094 67.773438 189.480469 67.617188 C 189.714844 67.460938 189.960938 67.332031 190.21875 67.222656 C 190.476562 67.117188 190.742188 67.035156 191.019531 66.980469 C 191.292969 66.925781 191.570312 66.898438 191.851562 66.898438 L 213.84375 66.898438 C 214.125 66.898438 214.402344 66.925781 214.675781 66.980469 C 214.953125 67.035156 215.21875 67.117188 215.476562 67.222656 C 215.734375 67.332031 215.980469 67.460938 216.214844 67.617188 C 216.449219 67.773438 216.664062 67.949219 216.859375 68.148438 C 217.058594 68.347656 217.234375 68.5625 217.390625 68.796875 C 217.546875 69.027344 217.679688 69.273438 217.785156 69.535156 C 217.890625 69.792969 217.972656 70.058594 218.027344 70.335938 C 218.082031 70.609375 218.109375 70.886719 218.109375 71.167969 C 218.109375 71.449219 218.082031 71.726562 218.027344 72 C 217.972656 72.273438 217.890625 72.542969 217.785156 72.800781 C 217.679688 73.058594 217.546875 73.304688 217.390625 73.539062 C 217.234375 73.769531 217.058594 73.988281 216.859375 74.183594 C 216.664062 74.382812 216.449219 74.558594 216.214844 74.714844 C 215.980469 74.871094 215.734375 75.003906 215.476562 75.109375 C 215.21875 75.21875 214.953125 75.296875 214.675781 75.351562 C 214.402344 75.40625 214.125 75.433594 213.84375 75.433594 Z M 213.84375 75.433594 " fill-opacity="1" fill-rule="nonzero"/><path fill="#000000" d="M 257.835938 75.433594 L 235.839844 75.433594 C 235.558594 75.433594 235.28125 75.40625 235.007812 75.351562 C 234.734375 75.296875 234.46875 75.21875 234.207031 75.109375 C 233.949219 75.003906 233.703125 74.871094 233.472656 74.714844 C 233.238281 74.558594 233.023438 74.382812 232.824219 74.183594 C 232.628906 73.988281 232.449219 73.769531 232.292969 73.539062 C 232.140625 73.304688 232.007812 73.058594 231.902344 72.800781 C 231.792969 72.542969 231.710938 72.273438 231.65625 72 C 231.601562 71.726562 231.574219 71.449219 231.574219 71.167969 C 231.574219 70.886719 231.601562 70.609375 231.65625 70.335938 C 231.710938 70.058594 231.792969 69.792969 231.902344 69.535156 C 232.007812 69.273438 232.140625 69.027344 232.292969 68.796875 C 232.449219 68.5625 232.628906 68.347656 232.824219 68.148438 C 233.023438 67.949219 233.238281 67.773438 233.472656 67.617188 C 233.703125 67.460938 233.949219 67.332031 234.207031 67.222656 C 234.46875 67.117188 234.734375 67.035156 235.007812 66.980469 C 235.28125 66.925781 235.558594 66.898438 235.839844 66.898438 L 257.835938 66.898438 C 258.113281 66.898438 258.390625 66.925781 258.667969 66.980469 C 258.941406 67.035156 259.207031 67.117188 259.46875 67.222656 C 259.726562 67.332031 259.972656 67.460938 260.203125 67.617188 C 260.4375 67.773438 260.652344 67.949219 260.851562 68.148438 C 261.046875 68.347656 261.226562 68.5625 261.378906 68.796875 C 261.535156 69.027344 261.667969 69.273438 261.773438 69.535156 C 261.882812 69.792969 261.960938 70.058594 262.015625 70.335938 C 262.070312 70.609375 262.097656 70.886719 262.097656 71.167969 C 262.097656 71.449219 262.070312 71.726562 262.015625 72 C 261.960938 72.273438 261.882812 72.542969 261.773438 72.800781 C 261.667969 73.058594 261.535156 73.304688 261.378906 73.539062 C 261.226562 73.769531 261.046875 73.988281 260.851562 74.183594 C 260.652344 74.382812 260.4375 74.558594 260.203125 74.714844 C 259.972656 74.871094 259.726562 75.003906 259.46875 75.109375 C 259.207031 75.21875 258.941406 75.296875 258.667969 75.351562 C 258.390625 75.40625 258.113281 75.433594 257.835938 75.433594 Z M 257.835938 75.433594 " fill-opacity="1" fill-rule="nonzero"/><path fill="#000000" d="M 301.824219 75.433594 L 279.828125 75.433594 C 279.550781 75.433594 279.273438 75.40625 278.996094 75.351562 C 278.722656 75.296875 278.457031 75.21875 278.199219 75.109375 C 277.9375 75.003906 277.695312 74.871094 277.460938 74.714844 C 277.226562 74.558594 277.011719 74.382812 276.816406 74.183594 C 276.617188 73.988281 276.441406 73.769531 276.285156 73.539062 C 276.128906 73.304688 275.996094 73.058594 275.890625 72.800781 C 275.78125 72.542969 275.703125 72.273438 275.648438 72 C 275.59375 71.726562 275.566406 71.449219 275.566406 71.167969 C 275.566406 70.886719 275.59375 70.609375 275.648438 70.335938 C 275.703125 70.058594 275.78125 69.792969 275.890625 69.535156 C 275.996094 69.273438 276.128906 69.027344 276.285156 68.796875 C 276.441406 68.5625 276.617188 68.347656 276.816406 68.148438 C 277.011719 67.949219 277.226562 67.773438 277.460938 67.617188 C 277.695312 67.460938 277.9375 67.332031 278.199219 67.222656 C 278.457031 67.117188 278.722656 67.035156 278.996094 66.980469 C 279.273438 66.925781 279.550781 66.898438 279.828125 66.898438 L 301.824219 66.898438 C 302.105469 66.898438 302.382812 66.925781 302.65625 66.980469 C 302.933594 67.035156 303.199219 67.117188 303.457031 67.222656 C 303.714844 67.332031 303.960938 67.460938 304.195312 67.617188 C 304.425781 67.773438 304.644531 67.949219 304.839844 68.148438 C 305.039062 68.347656 305.214844 68.5625 305.371094 68.796875 C 305.527344 69.027344 305.65625 69.273438 305.765625 69.535156 C 305.871094 69.792969 305.953125 70.058594 306.007812 70.335938 C 306.0625 70.609375 306.089844 70.886719 306.089844 71.167969 C 306.089844 71.449219 306.0625 71.726562 306.007812 72 C 305.953125 72.273438 305.871094 72.542969 305.765625 72.800781 C 305.65625 73.058594 305.527344 73.304688 305.371094 73.539062 C 305.214844 73.769531 305.039062 73.988281 304.839844 74.183594 C 304.644531 74.382812 304.425781 74.558594 304.195312 74.714844 C 303.960938 74.871094 303.714844 75.003906 303.457031 75.109375 C 303.199219 75.21875 302.933594 75.296875 302.65625 75.351562 C 302.382812 75.40625 302.105469 75.433594 301.824219 75.433594 Z M 301.824219 75.433594 " fill-opacity="1" fill-rule="nonzero"/><path fill="#000000" d="M 323.820312 361.636719 L 169.855469 361.636719 C 169.574219 361.636719 169.296875 361.609375 169.023438 361.554688 C 168.75 361.5 168.480469 361.417969 168.222656 361.3125 C 167.964844 361.203125 167.71875 361.070312 167.484375 360.917969 C 167.253906 360.761719 167.039062 360.582031 166.839844 360.386719 C 166.640625 360.1875 166.464844 359.972656 166.308594 359.738281 C 166.152344 359.503906 166.023438 359.257812 165.914062 359 C 165.808594 358.742188 165.726562 358.476562 165.671875 358.199219 C 165.617188 357.925781 165.589844 357.648438 165.589844 357.367188 L 165.589844 291.320312 C 165.589844 291.039062 165.617188 290.761719 165.671875 290.488281 C 165.726562 290.214844 165.808594 289.945312 165.914062 289.6875 C 166.023438 289.429688 166.152344 289.183594 166.308594 288.949219 C 166.464844 288.714844 166.640625 288.5 166.839844 288.304688 C 167.039062 288.105469 167.253906 287.929688 167.484375 287.773438 C 167.71875 287.617188 167.964844 287.484375 168.222656 287.378906 C 168.480469 287.269531 168.75 287.191406 169.023438 287.136719 C 169.296875 287.082031 169.574219 287.054688 169.855469 287.054688 L 323.820312 287.054688 C 324.101562 287.054688 324.378906 287.082031 324.652344 287.136719 C 324.925781 287.191406 325.195312 287.269531 325.453125 287.378906 C 325.710938 287.484375 325.957031 287.617188 326.191406 287.773438 C 326.421875 287.929688 326.636719 288.105469 326.835938 288.304688 C 327.035156 288.5 327.210938 288.714844 327.367188 288.949219 C 327.523438 289.183594 327.652344 289.429688 327.761719 289.6875 C 327.867188 289.945312 327.949219 290.214844 328.003906 290.488281 C 328.058594 290.761719 328.085938 291.039062 328.085938 291.320312 L 328.085938 357.367188 C 328.085938 357.648438 328.058594 357.925781 328.003906 358.199219 C 327.949219 358.476562 327.867188 358.742188 327.761719 359 C 327.652344 359.257812 327.523438 359.503906 327.367188 359.738281 C 327.210938 359.972656 327.035156 360.1875 326.835938 360.386719 C 326.636719 360.582031 326.421875 360.761719 326.1875 360.917969 C 325.957031 361.070312 325.710938 361.203125 325.453125 361.3125 C 325.195312 361.417969 324.925781 361.5 324.652344 361.554688 C 324.378906 361.609375 324.101562 361.636719 323.820312 361.636719 Z M 174.121094 353.097656 L 319.554688 353.097656 L 319.554688 295.589844 L 174.121094 295.589844 Z M 174.121094 353.097656 " fill-opacity="1" fill-rule="nonzero"/><path fill="#000000" d="M 213.84375 361.636719 C 213.421875 361.636719 213.011719 361.574219 212.609375 361.453125 C 212.203125 361.328125 211.828125 361.152344 211.476562 360.917969 C 211.125 360.679688 210.816406 360.402344 210.550781 360.074219 C 210.28125 359.75 210.066406 359.390625 209.90625 359 C 209.746094 358.609375 209.644531 358.207031 209.601562 357.785156 C 209.5625 357.367188 209.582031 356.949219 209.664062 356.535156 C 209.746094 356.121094 209.886719 355.726562 210.085938 355.355469 C 210.285156 354.984375 210.53125 354.648438 210.832031 354.347656 L 276.816406 288.304688 C 277.011719 288.105469 277.226562 287.929688 277.460938 287.773438 C 277.695312 287.617188 277.941406 287.484375 278.199219 287.378906 C 278.457031 287.269531 278.722656 287.191406 279 287.136719 C 279.273438 287.082031 279.550781 287.054688 279.832031 287.054688 C 280.109375 287.054688 280.386719 287.082031 280.660156 287.136719 C 280.9375 287.191406 281.203125 287.269531 281.460938 287.378906 C 281.71875 287.484375 281.964844 287.617188 282.199219 287.773438 C 282.433594 287.929688 282.648438 288.105469 282.84375 288.304688 C 283.042969 288.5 283.21875 288.71875 283.375 288.949219 C 283.53125 289.183594 283.664062 289.429688 283.769531 289.6875 C 283.875 289.945312 283.957031 290.214844 284.011719 290.488281 C 284.066406 290.761719 284.09375 291.042969 284.09375 291.320312 C 284.09375 291.601562 284.066406 291.878906 284.011719 292.152344 C 283.957031 292.429688 283.875 292.695312 283.769531 292.953125 C 283.660156 293.214844 283.53125 293.460938 283.375 293.691406 C 283.21875 293.925781 283.042969 294.140625 282.84375 294.339844 L 216.859375 360.386719 C 216.027344 361.21875 215.023438 361.636719 213.84375 361.636719 Z M 213.84375 361.636719 " fill-opacity="1" fill-rule="nonzero"/><path fill="#000000" d="M 257.835938 361.636719 C 257.414062 361.636719 257 361.574219 256.597656 361.453125 C 256.195312 361.328125 255.816406 361.152344 255.464844 360.917969 C 255.117188 360.679688 254.804688 360.402344 254.539062 360.074219 C 254.269531 359.75 254.058594 359.390625 253.894531 359 C 253.734375 358.609375 253.632812 358.207031 253.589844 357.785156 C 253.550781 357.367188 253.570312 356.949219 253.652344 356.535156 C 253.734375 356.121094 253.875 355.726562 254.074219 355.355469 C 254.273438 354.984375 254.523438 354.648438 254.820312 354.347656 L 320.804688 288.304688 C 321.003906 288.105469 321.21875 287.929688 321.453125 287.773438 C 321.683594 287.617188 321.929688 287.484375 322.1875 287.378906 C 322.449219 287.269531 322.714844 287.191406 322.988281 287.136719 C 323.261719 287.082031 323.539062 287.054688 323.820312 287.054688 C 324.101562 287.054688 324.378906 287.082031 324.652344 287.136719 C 324.925781 287.191406 325.195312 287.269531 325.453125 287.378906 C 325.710938 287.484375 325.957031 287.617188 326.191406 287.773438 C 326.421875 287.929688 326.636719 288.105469 326.835938 288.304688 C 327.035156 288.5 327.210938 288.71875 327.367188 288.949219 C 327.523438 289.183594 327.652344 289.429688 327.761719 289.6875 C 327.867188 289.945312 327.949219 290.214844 328.003906 290.488281 C 328.058594 290.761719 328.085938 291.042969 328.085938 291.320312 C 328.085938 291.601562 328.058594 291.878906 328.003906 292.152344 C 327.949219 292.429688 327.867188 292.695312 327.757812 292.953125 C 327.652344 293.214844 327.519531 293.460938 327.367188 293.691406 C 327.210938 293.925781 327.035156 294.140625 326.835938 294.339844 L 260.851562 360.386719 C 260.019531 361.21875 259.011719 361.636719 257.835938 361.636719 Z M 257.835938 361.636719 " fill-opacity="1" fill-rule="nonzero"/><path fill="#000000" d="M 169.855469 361.636719 C 169.433594 361.636719 169.019531 361.574219 168.617188 361.453125 C 168.214844 361.328125 167.835938 361.152344 167.484375 360.917969 C 167.136719 360.679688 166.828125 360.402344 166.558594 360.074219 C 166.292969 359.75 166.078125 359.390625 165.914062 359 C 165.753906 358.609375 165.652344 358.207031 165.613281 357.785156 C 165.570312 357.367188 165.589844 356.949219 165.671875 356.535156 C 165.753906 356.121094 165.894531 355.726562 166.09375 355.355469 C 166.292969 354.984375 166.542969 354.648438 166.839844 354.347656 L 232.824219 288.304688 C 233.023438 288.105469 233.238281 287.925781 233.472656 287.769531 C 233.703125 287.613281 233.949219 287.480469 234.207031 287.375 C 234.46875 287.265625 234.734375 287.183594 235.007812 287.128906 C 235.285156 287.074219 235.5625 287.046875 235.84375 287.046875 C 236.121094 287.046875 236.398438 287.074219 236.675781 287.128906 C 236.949219 287.183594 237.21875 287.265625 237.476562 287.371094 C 237.734375 287.480469 237.980469 287.609375 238.214844 287.765625 C 238.445312 287.921875 238.664062 288.097656 238.859375 288.296875 C 239.058594 288.496094 239.234375 288.710938 239.390625 288.945312 C 239.546875 289.179688 239.679688 289.425781 239.785156 289.683594 C 239.894531 289.945312 239.972656 290.210938 240.027344 290.484375 C 240.082031 290.761719 240.109375 291.039062 240.109375 291.320312 C 240.109375 291.601562 240.082031 291.878906 240.027344 292.152344 C 239.972656 292.429688 239.890625 292.695312 239.78125 292.953125 C 239.675781 293.214844 239.542969 293.460938 239.386719 293.691406 C 239.230469 293.925781 239.054688 294.140625 238.855469 294.339844 L 172.871094 360.386719 C 172.039062 361.21875 171.03125 361.636719 169.855469 361.636719 Z M 169.855469 361.636719 " fill-opacity="1" fill-rule="nonzero"/><path fill="#000000" d="M 59.882812 53.421875 C 59.425781 53.421875 58.980469 53.347656 58.546875 53.207031 C 58.109375 53.0625 57.710938 52.855469 57.339844 52.582031 C 56.972656 52.308594 56.65625 51.984375 56.394531 51.609375 C 56.128906 51.234375 55.933594 50.828125 55.800781 50.390625 C 55.667969 49.953125 55.605469 49.503906 55.617188 49.046875 C 55.628906 48.585938 55.710938 48.144531 55.867188 47.710938 C 56.019531 47.28125 56.238281 46.882812 56.519531 46.523438 C 56.800781 46.164062 57.132812 45.855469 57.515625 45.601562 L 123.5 1.570312 C 123.730469 1.414062 123.976562 1.28125 124.238281 1.175781 C 124.496094 1.070312 124.761719 0.988281 125.035156 0.933594 C 125.3125 0.878906 125.589844 0.851562 125.867188 0.851562 C 126.148438 0.851562 126.425781 0.878906 126.699219 0.9375 C 126.976562 0.992188 127.242188 1.070312 127.5 1.179688 C 127.757812 1.285156 128.003906 1.417969 128.238281 1.574219 C 128.46875 1.730469 128.683594 1.90625 128.882812 2.105469 C 129.082031 2.304688 129.257812 2.519531 129.414062 2.753906 C 129.566406 2.988281 129.699219 3.234375 129.804688 3.492188 C 129.914062 3.75 129.992188 4.019531 130.046875 4.292969 C 130.101562 4.566406 130.128906 4.84375 130.128906 5.125 C 130.128906 5.40625 130.101562 5.683594 130.046875 5.957031 C 129.992188 6.234375 129.910156 6.5 129.800781 6.757812 C 129.695312 7.015625 129.5625 7.261719 129.40625 7.496094 C 129.25 7.730469 129.074219 7.945312 128.875 8.140625 C 128.679688 8.339844 128.460938 8.515625 128.230469 8.671875 L 62.246094 52.703125 C 61.53125 53.179688 60.742188 53.421875 59.882812 53.421875 Z M 59.882812 53.421875 " fill-opacity="1" fill-rule="nonzero"/><path fill="#000000" d="M 125.867188 53.421875 C 125.410156 53.421875 124.96875 53.347656 124.535156 53.207031 C 124.101562 53.066406 123.699219 52.859375 123.332031 52.585938 C 122.964844 52.316406 122.652344 51.996094 122.386719 51.621094 C 122.125 51.25 121.925781 50.84375 121.789062 50.410156 C 121.65625 49.972656 121.59375 49.527344 121.601562 49.070312 C 121.609375 48.613281 121.691406 48.171875 121.839844 47.738281 C 121.992188 47.308594 122.207031 46.914062 122.484375 46.550781 C 122.761719 46.1875 123.089844 45.878906 123.464844 45.621094 L 188.46875 1.371094 C 188.699219 1.214844 188.945312 1.082031 189.203125 0.972656 C 189.460938 0.863281 189.726562 0.777344 190 0.722656 C 190.273438 0.664062 190.550781 0.632812 190.832031 0.632812 C 191.109375 0.628906 191.390625 0.65625 191.664062 0.707031 C 191.9375 0.757812 192.207031 0.839844 192.464844 0.941406 C 192.726562 1.046875 192.972656 1.175781 193.207031 1.332031 C 193.441406 1.484375 193.660156 1.660156 193.859375 1.855469 C 194.058594 2.054688 194.234375 2.269531 194.394531 2.5 C 194.550781 2.730469 194.683594 2.976562 194.792969 3.234375 C 194.902344 3.492188 194.988281 3.757812 195.042969 4.035156 C 195.101562 4.308594 195.128906 4.585938 195.132812 4.867188 C 195.132812 5.148438 195.109375 5.425781 195.054688 5.699219 C 195.003906 5.976562 194.925781 6.242188 194.820312 6.503906 C 194.714844 6.761719 194.585938 7.007812 194.429688 7.242188 C 194.277344 7.476562 194.101562 7.695312 193.90625 7.894531 C 193.707031 8.09375 193.496094 8.273438 193.261719 8.429688 L 128.261719 52.679688 C 127.539062 53.175781 126.742188 53.421875 125.867188 53.421875 Z M 125.867188 53.421875 " fill-opacity="1" fill-rule="nonzero"/><path fill="#000000" d="M 190.867188 53.421875 C 190.410156 53.421875 189.964844 53.347656 189.527344 53.203125 C 189.09375 53.0625 188.691406 52.851562 188.324219 52.578125 C 187.953125 52.304688 187.636719 51.980469 187.375 51.605469 C 187.113281 51.226562 186.914062 50.820312 186.78125 50.382812 C 186.648438 49.941406 186.589844 49.492188 186.601562 49.035156 C 186.613281 48.574219 186.699219 48.128906 186.855469 47.699219 C 187.011719 47.265625 187.230469 46.871094 187.515625 46.511719 C 187.800781 46.148438 188.132812 45.84375 188.515625 45.589844 L 255.484375 1.339844 C 255.71875 1.183594 255.964844 1.054688 256.226562 0.949219 C 256.484375 0.84375 256.75 0.765625 257.027344 0.710938 C 257.300781 0.65625 257.578125 0.632812 257.859375 0.632812 C 258.136719 0.636719 258.414062 0.664062 258.691406 0.71875 C 258.964844 0.777344 259.230469 0.859375 259.488281 0.96875 C 259.746094 1.074219 259.992188 1.207031 260.222656 1.367188 C 260.457031 1.523438 260.671875 1.699219 260.867188 1.898438 C 261.0625 2.097656 261.238281 2.316406 261.394531 2.550781 C 261.546875 2.785156 261.679688 3.03125 261.785156 3.289062 C 261.890625 3.550781 261.96875 3.816406 262.023438 4.09375 C 262.074219 4.367188 262.101562 4.644531 262.097656 4.925781 C 262.097656 5.207031 262.070312 5.484375 262.011719 5.757812 C 261.957031 6.03125 261.875 6.296875 261.765625 6.558594 C 261.65625 6.816406 261.523438 7.058594 261.367188 7.292969 C 261.210938 7.523438 261.03125 7.738281 260.832031 7.9375 C 260.632812 8.132812 260.417969 8.308594 260.183594 8.464844 L 193.214844 52.714844 C 192.503906 53.183594 191.722656 53.421875 190.867188 53.421875 Z M 190.867188 53.421875 " fill-opacity="1" fill-rule="nonzero"/><path fill="#000000" d="M 257.839844 53.421875 C 257.382812 53.421875 256.9375 53.347656 256.5 53.207031 C 256.066406 53.0625 255.664062 52.855469 255.296875 52.582031 C 254.929688 52.308594 254.613281 51.988281 254.351562 51.613281 C 254.085938 51.238281 253.890625 50.832031 253.757812 50.394531 C 253.621094 49.957031 253.5625 49.507812 253.574219 49.050781 C 253.582031 48.59375 253.664062 48.148438 253.820312 47.71875 C 253.972656 47.289062 254.1875 46.890625 254.46875 46.53125 C 254.75 46.167969 255.082031 45.859375 255.460938 45.605469 L 321.445312 1.355469 C 321.679688 1.199219 321.925781 1.066406 322.183594 0.960938 C 322.441406 0.851562 322.707031 0.769531 322.984375 0.714844 C 323.257812 0.660156 323.535156 0.632812 323.816406 0.632812 C 324.097656 0.632812 324.375 0.65625 324.648438 0.710938 C 324.921875 0.765625 325.191406 0.847656 325.449219 0.953125 C 325.707031 1.0625 325.953125 1.191406 326.1875 1.347656 C 326.421875 1.503906 326.636719 1.679688 326.835938 1.878906 C 327.03125 2.074219 327.210938 2.289062 327.367188 2.523438 C 327.523438 2.757812 327.652344 3.003906 327.761719 3.261719 C 327.867188 3.519531 327.949219 3.789062 328.003906 4.0625 C 328.058594 4.335938 328.085938 4.613281 328.085938 4.894531 C 328.089844 5.175781 328.0625 5.453125 328.007812 5.730469 C 327.953125 6.003906 327.871094 6.269531 327.765625 6.53125 C 327.65625 6.789062 327.527344 7.035156 327.371094 7.269531 C 327.214844 7.5 327.039062 7.71875 326.839844 7.917969 C 326.640625 8.113281 326.425781 8.292969 326.195312 8.449219 L 260.207031 52.699219 C 259.492188 53.179688 258.703125 53.421875 257.839844 53.421875 Z M 257.839844 53.421875 " fill-opacity="1" fill-rule="nonzero"/><path fill="#000000" d="M 279.828125 251.558594 L 213.84375 251.558594 C 213.566406 251.558594 213.289062 251.53125 213.011719 251.476562 C 212.738281 251.421875 212.472656 251.339844 212.214844 251.234375 C 211.953125 251.125 211.710938 250.996094 211.476562 250.839844 C 211.242188 250.683594 211.027344 250.507812 210.832031 250.308594 C 210.632812 250.109375 210.457031 249.894531 210.300781 249.660156 C 210.144531 249.429688 210.011719 249.183594 209.90625 248.921875 C 209.796875 248.664062 209.71875 248.398438 209.664062 248.121094 C 209.609375 247.847656 209.582031 247.570312 209.582031 247.289062 L 209.582031 228.792969 C 209.582031 227.816406 209.632812 226.84375 209.726562 225.871094 C 209.824219 224.902344 209.96875 223.9375 210.160156 222.980469 C 210.351562 222.023438 210.585938 221.078125 210.871094 220.144531 C 211.15625 219.210938 211.484375 218.292969 211.855469 217.394531 C 212.230469 216.492188 212.648438 215.613281 213.105469 214.75 C 213.566406 213.890625 214.066406 213.054688 214.609375 212.242188 C 215.152344 211.433594 215.730469 210.648438 216.347656 209.894531 C 216.96875 209.140625 217.621094 208.417969 218.3125 207.730469 C 219 207.039062 219.722656 206.386719 220.476562 205.765625 C 221.230469 205.148438 222.011719 204.566406 222.820312 204.023438 C 223.632812 203.480469 224.464844 202.980469 225.324219 202.519531 C 226.183594 202.058594 227.066406 201.644531 227.964844 201.269531 C 228.867188 200.894531 229.78125 200.566406 230.714844 200.28125 C 231.648438 200 232.59375 199.761719 233.546875 199.570312 C 234.503906 199.378906 235.464844 199.234375 236.4375 199.136719 C 237.40625 199.042969 238.378906 198.992188 239.355469 198.992188 L 254.320312 198.992188 C 255.296875 198.992188 256.269531 199.042969 257.238281 199.136719 C 258.207031 199.234375 259.171875 199.378906 260.125 199.570312 C 261.082031 199.761719 262.027344 200 262.960938 200.28125 C 263.890625 200.566406 264.808594 200.894531 265.710938 201.269531 C 266.609375 201.644531 267.488281 202.058594 268.347656 202.519531 C 269.207031 202.980469 270.042969 203.480469 270.855469 204.023438 C 271.664062 204.566406 272.445312 205.148438 273.199219 205.765625 C 273.953125 206.386719 274.675781 207.039062 275.363281 207.730469 C 276.054688 208.417969 276.707031 209.140625 277.324219 209.894531 C 277.945312 210.648438 278.523438 211.433594 279.066406 212.242188 C 279.609375 213.054688 280.109375 213.890625 280.570312 214.75 C 281.027344 215.609375 281.445312 216.492188 281.820312 217.394531 C 282.191406 218.292969 282.519531 219.210938 282.804688 220.144531 C 283.089844 221.078125 283.324219 222.023438 283.515625 222.980469 C 283.707031 223.9375 283.851562 224.902344 283.949219 225.871094 C 284.042969 226.84375 284.09375 227.816406 284.09375 228.792969 L 284.09375 247.289062 C 284.09375 247.570312 284.066406 247.847656 284.011719 248.121094 C 283.957031 248.398438 283.875 248.664062 283.769531 248.921875 C 283.664062 249.183594 283.53125 249.429688 283.375 249.660156 C 283.21875 249.894531 283.042969 250.109375 282.84375 250.308594 C 282.648438 250.507812 282.433594 250.683594 282.199219 250.839844 C 281.964844 250.996094 281.71875 251.125 281.460938 251.234375 C 281.203125 251.339844 280.9375 251.421875 280.660156 251.476562 C 280.386719 251.53125 280.109375 251.558594 279.828125 251.558594 Z M 218.109375 243.023438 L 275.566406 243.023438 L 275.566406 228.792969 C 275.566406 228.097656 275.53125 227.402344 275.460938 226.707031 C 275.390625 226.015625 275.289062 225.328125 275.152344 224.644531 C 275.015625 223.960938 274.847656 223.289062 274.644531 222.621094 C 274.441406 221.957031 274.207031 221.300781 273.941406 220.660156 C 273.675781 220.015625 273.378906 219.386719 273.050781 218.773438 C 272.722656 218.160156 272.363281 217.5625 271.976562 216.984375 C 271.589844 216.40625 271.175781 215.847656 270.734375 215.308594 C 270.292969 214.769531 269.828125 214.253906 269.335938 213.761719 C 268.84375 213.269531 268.328125 212.804688 267.792969 212.363281 C 267.253906 211.921875 266.695312 211.503906 266.117188 211.117188 C 265.539062 210.730469 264.945312 210.375 264.332031 210.046875 C 263.71875 209.71875 263.089844 209.417969 262.445312 209.152344 C 261.804688 208.886719 261.148438 208.652344 260.484375 208.449219 C 259.820312 208.246094 259.144531 208.078125 258.464844 207.941406 C 257.78125 207.804688 257.09375 207.699219 256.402344 207.632812 C 255.710938 207.5625 255.015625 207.527344 254.320312 207.527344 L 239.355469 207.527344 C 238.660156 207.527344 237.964844 207.5625 237.273438 207.632812 C 236.582031 207.699219 235.894531 207.804688 235.210938 207.941406 C 234.527344 208.078125 233.855469 208.246094 233.191406 208.449219 C 232.523438 208.652344 231.871094 208.886719 231.226562 209.152344 C 230.585938 209.417969 229.957031 209.71875 229.34375 210.046875 C 228.730469 210.375 228.136719 210.730469 227.558594 211.117188 C 226.976562 211.507812 226.421875 211.921875 225.882812 212.363281 C 225.34375 212.804688 224.832031 213.269531 224.339844 213.761719 C 223.847656 214.253906 223.378906 214.769531 222.9375 215.308594 C 222.496094 215.847656 222.082031 216.40625 221.695312 216.984375 C 221.3125 217.5625 220.953125 218.160156 220.625 218.773438 C 220.296875 219.386719 220 220.015625 219.734375 220.660156 C 219.464844 221.300781 219.230469 221.957031 219.03125 222.621094 C 218.828125 223.289062 218.65625 223.964844 218.523438 224.644531 C 218.386719 225.328125 218.28125 226.015625 218.214844 226.707031 C 218.144531 227.402344 218.109375 228.097656 218.109375 228.792969 Z M 218.109375 243.023438 " fill-opacity="1" fill-rule="nonzero"/></svg>